<svg width="48" height="45" viewBox="0 0 48 45" fill="none" xmlns="http://www.w3.org/2000/svg">
<path d="M24 10.0546V1H14.8M30.9 21.3728V25.9001M1 23.6365H5.6M42.4 23.6365H47M17.1 21.3728V25.9001M42.4 32.691C42.4 33.8917 41.9154 35.0433 41.0527 35.8923C40.19 36.7413 39.02 37.2183 37.8 37.2183H16.7044C15.4845 37.2186 14.3147 37.6957 13.4522 38.5448L8.3876 43.5294C8.15922 43.7541 7.86827 43.9071 7.55152 43.9691C7.23478 44.0311 6.90647 43.9993 6.60811 43.8777C6.30974 43.756 6.05472 43.5501 5.87528 43.2858C5.69584 43.0216 5.60004 42.7109 5.6 42.393V14.5819C5.6 13.3812 6.08464 12.2296 6.94731 11.3806C7.80998 10.5316 8.98 10.0546 10.2 10.0546H37.8C39.02 10.0546 40.19 10.5316 41.0527 11.3806C41.9154 12.2296 42.4 13.3812 42.4 14.5819V32.691Z" stroke="white" stroke-width="2" stroke-linecap="round" stroke-linejoin="round"/>
</svg>
